<svg width="1200" height="800" viewBox="0 0 1200 800" fill="none" xmlns="http://www.w3.org/2000/svg">
  <defs>
    <linearGradient id="bg" x1="1200" y1="0" x2="0" y2="800" gradientUnits="userSpaceOnUse">
      <stop stop-color="#232B38"/>
      <stop offset="0.42" stop-color="#121A26"/>
      <stop offset="1" stop-color="#070A11"/>
    </linearGradient>
    <pattern id="carbon" width="24" height="24" patternUnits="userSpaceOnUse" patternTransform="rotate(-30)">
      <rect width="24" height="24" fill="none"/>
      <rect width="10" height="24" fill="#313B49" fill-opacity="0.75"/>
      <rect x="10" width="8" height="24" fill="#1A232F" fill-opacity="0.95"/>
      <rect x="18" width="6" height="24" fill="#111924" fill-opacity="0.95"/>
    </pattern>
  </defs>
  <rect width="1200" height="800" fill="url(#bg)"/>
  <rect x="540" y="0" width="660" height="800" fill="url(#carbon)" opacity="0.92"/>
  <rect x="95" y="0" width="320" height="800" fill="#0E151F" opacity="0.95"/>
  <g fill="#212B38" opacity="0.95">
    <rect x="130" y="60" width="55" height="680" rx="6"/>
    <rect x="220" y="60" width="55" height="680" rx="6"/>
    <rect x="310" y="60" width="55" height="680" rx="6"/>
  </g>
  <g fill="#2B3543">
    <rect x="80" y="130" width="340" height="44" rx="6"/>
    <rect x="80" y="215" width="340" height="44" rx="6"/>
    <rect x="80" y="300" width="340" height="44" rx="6"/>
    <rect x="80" y="385" width="340" height="44" rx="6"/>
    <rect x="80" y="470" width="340" height="44" rx="6"/>
    <rect x="80" y="555" width="340" height="44" rx="6"/>
  </g>
  <rect x="500" y="0" width="18" height="800" fill="#495665" opacity="0.45"/>
</svg>
